<svg xmlns="http://www.w3.org/2000/svg" width="1154" height="233" viewBox="217 764 1154 233" role="img" aria-label="Florigen AI">
  <title>Florigen AI</title>
  <path fill="#e8f0e8" fill-rule="evenodd" d="M 759.0 840.0 L 770.0 840.0 L 775.0 841.0 L 782.0 844.0 L 785.0 846.0 L 794.0 856.0 L 797.0 862.0 L 798.0 866.0 L 799.0 878.0 L 798.0 886.0 L 794.0 896.0 L 791.0 900.0 L 783.0 907.0 L 779.0 909.0 L 769.0 912.0 L 761.0 912.0 L 755.0 911.0 L 747.0 908.0 L 744.0 906.0 L 736.0 898.0 L 734.0 895.0 L 730.0 884.0 L 730.0 868.0 L 732.0 861.0 L 737.0 852.0 L 745.0 845.0 L 751.0 842.0 Z M 469.0 840.0 L 482.0 840.0 L 489.0 842.0 L 498.0 847.0 L 506.0 856.0 L 509.0 862.0 L 511.0 870.0 L 511.0 887.0 L 509.0 894.0 L 506.0 900.0 L 498.0 909.0 L 489.0 914.0 L 482.0 916.0 L 467.0 916.0 L 463.0 915.0 L 454.0 910.0 L 450.0 907.0 L 445.0 901.0 L 441.0 893.0 L 439.0 884.0 L 439.0 873.0 L 441.0 864.0 L 447.0 853.0 L 453.0 847.0 L 459.0 843.0 Z M 937.0 860.0 L 936.0 866.0 L 874.0 864.0 L 875.0 860.0 L 878.0 854.0 L 886.0 845.0 L 894.0 841.0 L 907.0 839.0 L 916.0 840.0 L 922.0 842.0 L 927.0 845.0 L 932.0 850.0 Z M 653.0 820.0 L 651.0 822.0 L 651.0 937.0 L 678.0 937.0 L 679.0 935.0 L 679.0 821.0 L 676.0 821.0 L 675.0 820.0 Z M 1084.0 828.0 L 1078.0 824.0 L 1069.0 820.0 L 1060.0 818.0 L 1044.0 818.0 L 1033.0 821.0 L 1027.0 824.0 L 1020.0 829.0 L 1017.0 833.0 L 1013.0 834.0 L 1013.0 821.0 L 1002.0 820.0 L 986.0 821.0 L 986.0 937.0 L 1013.0 937.0 L 1013.0 868.0 L 1014.0 862.0 L 1017.0 855.0 L 1024.0 847.0 L 1028.0 844.0 L 1037.0 841.0 L 1048.0 841.0 L 1058.0 844.0 L 1063.0 848.0 L 1066.0 852.0 L 1069.0 858.0 L 1070.0 862.0 L 1070.0 937.0 L 1097.0 937.0 L 1098.0 928.0 L 1098.0 877.0 L 1097.0 855.0 L 1094.0 843.0 L 1091.0 837.0 L 1087.0 831.0 Z M 825.0 822.0 L 798.0 822.0 L 796.0 834.0 L 785.0 825.0 L 773.0 820.0 L 763.0 818.0 L 751.0 818.0 L 734.0 822.0 L 722.0 829.0 L 715.0 836.0 L 710.0 843.0 L 706.0 850.0 L 702.0 863.0 L 701.0 869.0 L 701.0 884.0 L 703.0 894.0 L 706.0 903.0 L 712.0 913.0 L 718.0 920.0 L 733.0 930.0 L 741.0 933.0 L 751.0 935.0 L 766.0 935.0 L 771.0 934.0 L 782.0 930.0 L 788.0 926.0 L 795.0 919.0 L 798.0 920.0 L 798.0 934.0 L 797.0 942.0 L 795.0 948.0 L 791.0 955.0 L 786.0 960.0 L 778.0 964.0 L 774.0 965.0 L 754.0 965.0 L 745.0 962.0 L 739.0 958.0 L 735.0 953.0 L 733.0 948.0 L 716.0 949.0 L 715.0 950.0 L 706.0 950.0 L 707.0 956.0 L 714.0 969.0 L 725.0 979.0 L 738.0 985.0 L 749.0 988.0 L 757.0 989.0 L 775.0 989.0 L 786.0 987.0 L 801.0 981.0 L 804.0 979.0 L 817.0 965.0 L 822.0 954.0 L 825.0 939.0 Z M 631.0 819.0 L 629.0 819.0 L 628.0 818.0 L 620.0 818.0 L 607.0 821.0 L 601.0 824.0 L 587.0 835.0 L 586.0 820.0 L 571.0 820.0 L 570.0 821.0 L 560.0 821.0 L 560.0 937.0 L 587.0 937.0 L 587.0 880.0 L 588.0 868.0 L 590.0 862.0 L 595.0 854.0 L 602.0 848.0 L 606.0 846.0 L 614.0 844.0 L 631.0 844.0 Z M 889.0 819.0 L 882.0 821.0 L 872.0 826.0 L 865.0 831.0 L 857.0 839.0 L 849.0 854.0 L 845.0 871.0 L 845.0 884.0 L 847.0 897.0 L 851.0 908.0 L 858.0 919.0 L 866.0 927.0 L 874.0 932.0 L 885.0 937.0 L 899.0 940.0 L 916.0 940.0 L 924.0 939.0 L 934.0 936.0 L 944.0 931.0 L 950.0 926.0 L 951.0 926.0 L 960.0 914.0 L 962.0 908.0 L 960.0 908.0 L 959.0 907.0 L 939.0 902.0 L 935.0 903.0 L 931.0 909.0 L 926.0 913.0 L 922.0 915.0 L 915.0 917.0 L 901.0 917.0 L 897.0 916.0 L 888.0 912.0 L 879.0 903.0 L 877.0 900.0 L 874.0 891.0 L 875.0 886.0 L 966.0 885.0 L 966.0 870.0 L 962.0 852.0 L 960.0 847.0 L 954.0 838.0 L 944.0 828.0 L 933.0 822.0 L 918.0 818.0 L 907.0 817.0 Z M 451.0 820.0 L 440.0 825.0 L 434.0 829.0 L 430.0 833.0 L 429.0 833.0 L 422.0 841.0 L 418.0 847.0 L 414.0 856.0 L 411.0 867.0 L 411.0 890.0 L 414.0 902.0 L 419.0 912.0 L 425.0 920.0 L 434.0 928.0 L 447.0 935.0 L 456.0 938.0 L 468.0 940.0 L 483.0 940.0 L 495.0 938.0 L 510.0 932.0 L 519.0 926.0 L 529.0 915.0 L 534.0 906.0 L 538.0 894.0 L 539.0 889.0 L 539.0 869.0 L 537.0 859.0 L 533.0 849.0 L 528.0 841.0 L 521.0 833.0 L 510.0 825.0 L 502.0 821.0 L 492.0 818.0 L 485.0 817.0 L 464.0 817.0 Z M 364.0 776.0 L 361.0 779.0 L 360.0 902.0 L 361.0 937.0 L 388.0 937.0 L 388.0 929.0 L 389.0 928.0 L 388.0 776.0 Z M 339.0 774.0 L 225.0 775.0 L 226.0 937.0 L 254.0 936.0 L 255.0 871.0 L 332.0 870.0 L 332.0 845.0 L 256.0 845.0 L 254.0 843.0 L 255.0 801.0 L 261.0 800.0 L 278.0 801.0 L 328.0 801.0 L 339.0 800.0 Z M 690.0 773.0 L 674.0 773.0 L 670.0 774.0 L 664.0 777.0 L 659.0 782.0 L 656.0 788.0 L 655.0 792.0 L 655.0 802.0 L 665.0 802.0 L 674.0 800.0 L 681.0 796.0 L 687.0 790.0 L 690.0 782.0 L 690.0 778.0 L 691.0 777.0 Z"/>
  <path fill="#70B150" fill-rule="evenodd" d="M 1234.0 808.0 L 1238.0 822.0 L 1242.0 830.0 L 1244.0 838.0 L 1250.0 851.0 L 1250.0 854.0 L 1256.0 867.0 L 1258.0 874.0 L 1256.0 876.0 L 1206.0 875.0 L 1206.0 871.0 L 1212.0 855.0 L 1217.0 845.0 L 1217.0 842.0 L 1220.0 837.0 L 1221.0 831.0 L 1226.0 821.0 L 1228.0 813.0 L 1230.0 809.0 Z M 1216.0 773.0 L 1214.0 775.0 L 1210.0 784.0 L 1209.0 789.0 L 1204.0 799.0 L 1201.0 809.0 L 1198.0 814.0 L 1197.0 819.0 L 1180.0 861.0 L 1165.0 895.0 L 1161.0 908.0 L 1157.0 915.0 L 1152.0 928.0 L 1151.0 933.0 L 1149.0 936.0 L 1150.0 939.0 L 1180.0 938.0 L 1185.0 927.0 L 1185.0 924.0 L 1192.0 906.0 L 1195.0 902.0 L 1267.0 902.0 L 1269.0 904.0 L 1283.0 939.0 L 1313.0 939.0 L 1313.0 934.0 L 1307.0 919.0 L 1302.0 909.0 L 1297.0 896.0 L 1295.0 888.0 L 1289.0 873.0 L 1281.0 856.0 L 1279.0 848.0 L 1249.0 773.0 Z M 1361.0 772.0 L 1334.0 773.0 L 1333.0 775.0 L 1334.0 939.0 L 1362.0 938.0 L 1363.0 931.0 L 1363.0 915.0 L 1362.0 914.0 L 1363.0 897.0 L 1362.0 882.0 L 1363.0 773.0 Z"/>
</svg>
